<svg id="visual" viewBox="0 0 900 450" width="900" height="450" xmlns="http://www.w3.org/2000/svg" xmlns:xlink="http://www.w3.org/1999/xlink" version="1.1"><rect x="0" y="0" width="900" height="450" fill="#001220"></rect><path d="M0 273L21.5 278.7C43 284.3 86 295.7 128.8 294.5C171.7 293.3 214.3 279.7 257.2 280.8C300 282 343 298 385.8 301.3C428.7 304.7 471.3 295.3 514.2 297.3C557 299.3 600 312.7 642.8 309.8C685.7 307 728.3 288 771.2 287.7C814 287.3 857 305.7 878.5 314.8L900 324L900 451L878.5 451C857 451 814 451 771.2 451C728.3 451 685.7 451 642.8 451C600 451 557 451 514.2 451C471.3 451 428.7 451 385.8 451C343 451 300 451 257.2 451C214.3 451 171.7 451 128.8 451C86 451 43 451 21.5 451L0 451Z" fill="#0066ff"></path><path d="M0 344L21.5 336.5C43 329 86 314 128.8 309.8C171.7 305.7 214.3 312.3 257.2 312C300 311.7 343 304.3 385.8 305.2C428.7 306 471.3 315 514.2 322.7C557 330.3 600 336.7 642.8 338C685.7 339.3 728.3 335.7 771.2 330.7C814 325.7 857 319.3 878.5 316.2L900 313L900 451L878.5 451C857 451 814 451 771.2 451C728.3 451 685.7 451 642.8 451C600 451 557 451 514.2 451C471.3 451 428.7 451 385.8 451C343 451 300 451 257.2 451C214.3 451 171.7 451 128.8 451C86 451 43 451 21.5 451L0 451Z" fill="#007aff"></path><path d="M0 355L21.5 352.3C43 349.7 86 344.3 128.8 348C171.7 351.7 214.3 364.3 257.2 371.2C300 378 343 379 385.8 374.7C428.7 370.3 471.3 360.7 514.2 361.2C557 361.7 600 372.3 642.8 372.3C685.7 372.3 728.3 361.7 771.2 356.3C814 351 857 351 878.5 351L900 351L900 451L878.5 451C857 451 814 451 771.2 451C728.3 451 685.7 451 642.8 451C600 451 557 451 514.2 451C471.3 451 428.7 451 385.8 451C343 451 300 451 257.2 451C214.3 451 171.7 451 128.8 451C86 451 43 451 21.5 451L0 451Z" fill="#008cff"></path><path d="M0 378L21.5 375C43 372 86 366 128.8 367C171.7 368 214.3 376 257.2 382.3C300 388.7 343 393.3 385.8 392.7C428.7 392 471.3 386 514.2 382.2C557 378.3 600 376.7 642.8 380.7C685.7 384.7 728.3 394.3 771.2 397.3C814 400.3 857 396.7 878.5 394.8L900 393L900 451L878.5 451C857 451 814 451 771.2 451C728.3 451 685.7 451 642.8 451C600 451 557 451 514.2 451C471.3 451 428.7 451 385.8 451C343 451 300 451 257.2 451C214.3 451 171.7 451 128.8 451C86 451 43 451 21.5 451L0 451Z" fill="#2b9dfc"></path><path d="M0 396L21.5 400.2C43 404.3 86 412.7 128.8 414.2C171.7 415.7 214.3 410.3 257.2 411.8C300 413.3 343 421.7 385.8 423.7C428.7 425.7 471.3 421.3 514.2 419C557 416.7 600 416.3 642.8 413.3C685.7 410.3 728.3 404.7 771.2 402C814 399.3 857 399.7 878.5 399.8L900 400L900 451L878.5 451C857 451 814 451 771.2 451C728.3 451 685.7 451 642.8 451C600 451 557 451 514.2 451C471.3 451 428.7 451 385.8 451C343 451 300 451 257.2 451C214.3 451 171.7 451 128.8 451C86 451 43 451 21.5 451L0 451Z" fill="#4facf7"></path></svg>