<?xml version="1.0" encoding="utf-8"?><svg xmlns="http://www.w3.org/2000/svg" xmlns:xlink="http://www.w3.org/1999/xlink" width="1536" height="760" preserveAspectRatio="xMidYMid" viewBox="0 0 1536 760" style="z-index:1;margin-right:-2px;display:block;background-repeat-y:initial;background-repeat-x:initial;background-color:rgb(255, 255, 255);animation-play-state:paused" ><g transform="translate(768,380) scale(1,1) translate(-768,-380)" style="transform:matrix(1, 0, 0, 1, 0, 0);animation-play-state:paused" ><linearGradient id="lg-0.8913175324968619" x1="0" x2="1" y1="0" y2="0" style="animation-play-state:paused" ><stop stop-color="#ff00ff" offset="0" style="animation-play-state:paused" ></stop>

  
<stop stop-color="#00ffff" offset="1" style="animation-play-state:paused" ></stop></linearGradient>
<path d="M 0 0 L 0 643.144 Q 153.6 608.617 307.2 579.104 T 614.4 496.316 T 921.6 519.285 T 1228.8 414.303 T 1536 313.478 L 1536 0 Z" fill="url(#lg-0.8913175324968619)" opacity="0.4" style="opacity:0.4;animation-play-state:paused" ></path>
<path d="M 0 0 L 0 745.324 Q 153.6 680.915 307.2 648.804 T 614.4 543.605 T 921.6 487.544 T 1228.8 439.657 T 1536 298.973 L 1536 0 Z" fill="url(#lg-0.8913175324968619)" opacity="0.4" style="opacity:0.4;animation-play-state:paused" ></path>
<path d="M 0 0 L 0 743.915 Q 153.6 628.137 307.2 581.821 T 614.4 598.871 T 921.6 459.193 T 1228.8 399.192 T 1536 379.201 L 1536 0 Z" fill="url(#lg-0.8913175324968619)" opacity="0.4" style="opacity:0.4;animation-play-state:paused" ></path>
<path d="M 0 0 L 0 648.889 Q 153.6 695.414 307.2 670.508 T 614.4 569.763 T 921.6 426.664 T 1228.8 412.914 T 1536 294.22 L 1536 0 Z" fill="url(#lg-0.8913175324968619)" opacity="0.4" style="opacity:0.4;animation-play-state:paused" ></path>
<path d="M 0 0 L 0 703.221 Q 153.6 676.709 307.2 649.775 T 614.4 582.205 T 921.6 525.366 T 1228.8 400.587 T 1536 292.905 L 1536 0 Z" fill="url(#lg-0.8913175324968619)" opacity="0.4" style="opacity:0.4;animation-play-state:paused" ></path></g></svg>